<?xml version="1.0" standalone="no"?>
<!DOCTYPE svg PUBLIC "-//W3C//DTD SVG 20010904//EN"
 "http://www.w3.org/TR/2001/REC-SVG-20010904/DTD/svg10.dtd">
<svg version="1.0" xmlns="http://www.w3.org/2000/svg"
 width="250.000000pt" height="250.000000pt" viewBox="0 0 250.000000 250.000000"
 preserveAspectRatio="xMidYMid meet">
<metadata>
Created by potrace 1.11, written by Peter Selinger 2001-2013
</metadata>
<g transform="translate(0.000000,250.000000) scale(0.100000,-0.100000)"
fill="#000000" stroke="none">
<path d="M460 1395 l0 -1055 800 0 800 0 0 1055 0 1055 -800 0 -800 0 0 -1055z
m826 910 c18 -19 23 -31 19 -48 -8 -27 -33 -47 -57 -47 -24 0 -58 35 -58 60 0
24 34 60 55 60 9 0 27 -11 41 -25z m-77 -232 c-30 -88 -86 -296 -114 -426 -43
-202 -59 -325 -59 -482 -1 -128 2 -160 21 -220 41 -128 112 -184 234 -185 115
0 231 44 389 149 115 76 118 77 95 50 -184 -215 -322 -336 -464 -407 -88 -44
-98 -47 -175 -47 -73 0 -87 3 -144 34 -164 89 -239 248 -229 486 8 187 62 368
188 630 75 156 259 475 274 475 2 0 -5 -26 -16 -57z"/>
<path d="M490 285 c0 -8 5 -15 10 -15 6 0 10 7 10 15 0 8 -4 15 -10 15 -5 0
-10 -7 -10 -15z"/>
<path d="M1706 291 c-7 -10 49 -9 60 2 4 4 -7 7 -24 7 -17 0 -33 -4 -36 -9z"/>
<path d="M490 180 c0 -52 4 -79 10 -75 6 3 10 37 10 75 0 38 -4 72 -10 75 -6
4 -10 -23 -10 -75z"/>
<path d="M618 253 c-28 -4 -28 -5 -28 -79 0 -43 4 -74 10 -74 6 0 10 27 10 60
0 49 3 61 20 70 12 6 30 8 40 5 22 -7 28 -25 33 -95 3 -33 4 -28 5 22 2 59 -1
69 -20 82 -12 9 -27 15 -33 15 -5 -1 -22 -4 -37 -6z"/>
<path d="M824 237 c-53 -46 -23 -130 46 -130 69 0 99 84 46 130 -15 12 -36 23
-46 23 -10 0 -31 -11 -46 -23z m86 -17 c11 -11 20 -29 20 -40 0 -26 -34 -60
-60 -60 -26 0 -60 34 -60 60 0 11 9 29 20 40 11 11 29 20 40 20 11 0 29 -9 40
-20z"/>
<path d="M1014 242 c19 -59 53 -137 61 -137 11 0 67 135 61 149 -2 6 -17 -18
-33 -53 l-29 -64 -23 61 c-12 34 -27 62 -32 62 -6 0 -8 -8 -5 -18z"/>
<path d="M1235 237 c-35 -29 -38 -78 -8 -109 21 -20 43 -24 98 -15 29 4 30 5
33 70 3 62 2 65 -20 65 -13 0 -35 3 -49 7 -19 5 -33 1 -54 -18z m85 -17 c11
-11 20 -29 20 -40 0 -26 -34 -60 -60 -60 -26 0 -60 34 -60 60 0 11 9 29 20 40
11 11 29 20 40 20 11 0 29 -9 40 -20z"/>
<path d="M1485 250 c-31 -12 -46 -35 -47 -70 -1 -25 7 -40 36 -66 20 -19 41
-34 47 -34 5 0 9 -4 9 -10 0 -5 -12 -10 -26 -10 -14 0 -23 -4 -19 -10 10 -16
45 -12 52 6 4 10 -1 22 -11 29 -15 11 -13 14 13 25 16 6 32 18 35 26 7 19 -8
18 -24 -2 -21 -24 -72 -14 -88 18 -27 57 31 108 84 73 30 -20 42 -15 17 7 -24
21 -54 28 -78 18z"/>
<path d="M1703 250 c-71 -29 -49 -146 28 -141 19 1 44 2 57 2 21 1 22 5 22 69
0 64 -1 68 -22 68 -13 0 -32 2 -43 5 -11 4 -30 2 -42 -3z m65 -26 c42 -29 16
-104 -37 -104 -44 0 -66 67 -34 102 20 22 42 23 71 2z"/>
<path d="M1930 247 c-52 -27 -52 -105 1 -133 73 -37 144 52 92 114 -23 28 -62
35 -93 19z m72 -24 c36 -32 12 -103 -35 -103 -49 0 -75 64 -40 102 20 22 51
23 75 1z"/>
</g>
</svg>
